<svg xmlns="http://www.w3.org/2000/svg" width="1241.342" height="2699.338" viewBox="0 0 1241.342 2699.338"><g transform="translate(6495.276 -2249)"><path d="M1531.39,507.993h413.36c131.473,0,239.048,107.592,239.048,239.064v687.294c0,131.467-107.575,239.052-239.047,239.052h-413.36c-131.481,0-239.067-107.585-239.067-239.052V747.057c0-131.472,107.586-239.064,239.066-239.064Zm562.768,2191.35h-712.18c-104.09,0-189.254-85.187-189.254-189.266V423.337c0-104.081,85.163-189.25,189.254-189.25h712.18a187.432,187.432,0,0,1,24.906,1.655V82.18a82.172,82.172,0,1,1,164.344,0V341.166a81.43,81.43,0,0,1-6.707,32.392,187.308,187.308,0,0,1,6.707,49.78V2510.08c0,104.079-85.153,189.266-189.25,189.266" transform="translate(-7688 2248.992)" fill="#cce86e" fill-rule="evenodd"/><path d="M1941.01,726.482,2434.066,975.5c-251.112,330.384-674.55,339.076-1125.56,296.332,301.514-74.294,510.276-258.552,632.5-545.354" transform="translate(-7688 2248.992)" fill="#ec1d27" fill-rule="evenodd"/></g></svg>